<svg width="17" height="16" viewBox="0 0 17 16" fill="none" xmlns="http://www.w3.org/2000/svg">
<g id="wrapper">
<path id="Union" d="M14.0326 6.53073L9.03255 11.5307C8.96287 11.6007 8.88008 11.6561 8.78892 11.694C8.69775 11.7318 8.60001 11.7513 8.5013 11.7513C8.40259 11.7513 8.30485 11.7318 8.21369 11.694C8.12252 11.6561 8.03973 11.6007 7.97005 11.5307L2.97005 6.53073C2.82915 6.38984 2.75 6.19874 2.75 5.99948C2.75 5.80023 2.82915 5.60913 2.97005 5.46823C3.11095 5.32734 3.30204 5.24818 3.5013 5.24818C3.70056 5.24818 3.89165 5.32734 4.03255 5.46823L8.50193 9.93761L12.9713 5.46761C13.1122 5.32671 13.3033 5.24756 13.5026 5.24756C13.7018 5.24756 13.8929 5.32671 14.0338 5.46761C14.1747 5.60851 14.2539 5.7996 14.2539 5.99886C14.2539 6.19812 14.1747 6.38921 14.0338 6.53011L14.0326 6.53073Z" fill="white" fill-opacity="0.6"/>
</g>
</svg>
