<svg width="1306" height="522" viewBox="0 0 1306 522" fill="none" xmlns="http://www.w3.org/2000/svg">
<line x1="1" y1="5.5" x2="1305" y2="5.5" stroke="#D9D9FF" stroke-opacity="0.25" stroke-dasharray="2"/>
<line x1="1" y1="56.5" x2="1305" y2="56.5" stroke="#D9D9FF" stroke-opacity="0.25" stroke-dasharray="2"/>
<line x1="1" y1="107.5" x2="1305" y2="107.5" stroke="#D9D9FF" stroke-opacity="0.25" stroke-dasharray="2"/>
<line x1="1" y1="158.5" x2="1305" y2="158.5" stroke="#D9D9FF" stroke-opacity="0.25" stroke-dasharray="2"/>
<line x1="1" y1="209.5" x2="1305" y2="209.5" stroke="#D9D9FF" stroke-opacity="0.25" stroke-dasharray="2"/>
<line x1="1" y1="260.5" x2="1305" y2="260.5" stroke="#D9D9FF" stroke-opacity="0.25" stroke-dasharray="2"/>
<line x1="1" y1="311.5" x2="1305" y2="311.5" stroke="#D9D9FF" stroke-opacity="0.25" stroke-dasharray="2"/>
<line x1="1" y1="362.5" x2="1305" y2="362.5" stroke="#D9D9FF" stroke-opacity="0.25" stroke-dasharray="2"/>
<line x1="1" y1="413.5" x2="1305" y2="413.5" stroke="#D9D9FF" stroke-opacity="0.25" stroke-dasharray="2"/>
<line x1="1" y1="464.5" x2="1305" y2="464.5" stroke="#D9D9FF" stroke-opacity="0.25" stroke-dasharray="2"/>
<line x1="1" y1="515.5" x2="1305" y2="515.5" stroke="#1F535C"/>
<line x1="0.5" y1="516" x2="0.5" y2="6" stroke="#D9D9FF" stroke-opacity="0.25" stroke-dasharray="2"/>
<line x1="163.5" y1="516" x2="163.5" y2="6" stroke="#D9D9FF" stroke-opacity="0.25" stroke-dasharray="2"/>
<line x1="326.5" y1="516" x2="326.5" y2="6" stroke="#D9D9FF" stroke-opacity="0.25" stroke-dasharray="2"/>
<line x1="489.5" y1="516" x2="489.5" y2="6" stroke="#D9D9FF" stroke-opacity="0.25" stroke-dasharray="2"/>
<line x1="652.5" y1="516" x2="652.5" y2="6" stroke="#D9D9FF" stroke-opacity="0.25" stroke-dasharray="2"/>
<line x1="815.5" y1="516" x2="815.5" y2="6" stroke="#D9D9FF" stroke-opacity="0.25" stroke-dasharray="2"/>
<line x1="978.5" y1="516" x2="978.5" y2="6" stroke="#D9D9FF" stroke-opacity="0.25" stroke-dasharray="2"/>
<line x1="1141.5" y1="516" x2="1141.5" y2="6" stroke="#D9D9FF" stroke-opacity="0.25" stroke-dasharray="2"/>
<line x1="1304.5" y1="516" x2="1304.5" y2="6" stroke="#D9D9FF" stroke-opacity="0.25" stroke-dasharray="2"/>
</svg>
