<svg width="24" height="24" viewBox="0 0 24 24" fill="none" xmlns="http://www.w3.org/2000/svg">
<g clip-path="url(#clip0_812_2773)">
<path d="M18 6.75032H14.2687C13.9959 6.73439 9.24188 6.3997 4.71469 2.60282C4.49607 2.41922 4.22959 2.30181 3.94656 2.2644C3.66353 2.22699 3.37571 2.27112 3.11689 2.39162C2.85807 2.51212 2.63902 2.70398 2.48546 2.94466C2.3319 3.18533 2.25022 3.46483 2.25 3.75032V18.7503C2.25004 19.0359 2.3316 19.3155 2.48508 19.5563C2.63857 19.7972 2.85761 19.9892 3.11646 20.1098C3.37532 20.2304 3.66322 20.2746 3.94633 20.2372C4.22945 20.1998 4.49601 20.0824 4.71469 19.8988C8.25563 16.9288 11.9334 16.0775 13.5 15.8394V18.8131C13.4997 19.0603 13.5605 19.3037 13.6769 19.5218C13.7934 19.7398 13.9619 19.9256 14.1675 20.0628L15.1987 20.75C15.3981 20.8831 15.6264 20.9664 15.8645 20.9931C16.1027 21.0197 16.3438 20.989 16.5676 20.9033C16.7914 20.8177 16.9914 20.6796 17.151 20.5008C17.3105 20.3219 17.4248 20.1074 17.4844 19.8753L18.5878 15.7166C19.7285 15.5764 20.7724 15.0052 21.5053 14.1199C22.2382 13.2347 22.6046 12.1026 22.5295 10.9558C22.4543 9.80897 21.9432 8.73439 21.1009 7.95241C20.2587 7.17044 19.1492 6.74034 18 6.75032ZM16.0312 19.49V19.5003L15 18.8131V15.7503H17.025L16.0312 19.49ZM18 14.2503H15V8.25032H18C18.7956 8.25032 19.5587 8.56639 20.1213 9.129C20.6839 9.69161 21 10.4547 21 11.2503C21 12.046 20.6839 12.809 20.1213 13.3716C19.5587 13.9343 18.7956 14.2503 18 14.2503Z" fill="#53CFBA"/>
</g>
<defs>
<clipPath id="clip0_812_2773">
<rect width="24" height="24" fill="white"/>
</clipPath>
</defs>
</svg>
