<svg width="14" height="14" viewBox="0 0 14 14" fill="none" xmlns="http://www.w3.org/2000/svg">
<g clip-path="url(#clip0_518_6240)">
<path d="M11.6849 5.55965L7.30988 9.93465C7.26924 9.97533 7.22099 10.0076 7.16788 10.0296C7.11477 10.0516 7.05784 10.063 7.00034 10.063C6.94285 10.063 6.88592 10.0516 6.83281 10.0296C6.7797 10.0076 6.73144 9.97533 6.69081 9.93465L2.31581 5.55965C2.25456 5.49847 2.21284 5.42048 2.19593 5.33557C2.17902 5.25066 2.18768 5.16264 2.22082 5.08265C2.25396 5.00267 2.31009 4.93431 2.3821 4.88624C2.45411 4.83818 2.53877 4.81255 2.62534 4.81262H11.3753C11.4619 4.81255 11.5466 4.83818 11.6186 4.88624C11.6906 4.93431 11.7467 5.00267 11.7799 5.08265C11.813 5.16264 11.8217 5.25066 11.8048 5.33557C11.7879 5.42048 11.7461 5.49847 11.6849 5.55965Z" fill="#EC5151"/>
</g>
<defs>
<clipPath id="clip0_518_6240">
<rect width="14" height="14" fill="white"/>
</clipPath>
</defs>
</svg>
