<svg width="20" height="20" viewBox="0 0 20 20" fill="none" xmlns="http://www.w3.org/2000/svg">
<g clip-path="url(#clip0_854_7364)">
<path d="M17.3172 10.4424L11.6922 16.0674C11.5749 16.1847 11.4159 16.2506 11.25 16.2506C11.0841 16.2506 10.9251 16.1847 10.8078 16.0674C10.6905 15.9501 10.6247 15.7911 10.6247 15.6252C10.6247 15.4594 10.6905 15.3003 10.8078 15.183L15.3664 10.6252H3.125C2.95924 10.6252 2.80027 10.5594 2.68306 10.4422C2.56585 10.325 2.5 10.166 2.5 10.0002C2.5 9.83447 2.56585 9.67549 2.68306 9.55828C2.80027 9.44107 2.95924 9.37523 3.125 9.37523H15.3664L10.8078 4.81741C10.6905 4.70014 10.6247 4.54108 10.6247 4.37523C10.6247 4.20937 10.6905 4.05031 10.8078 3.93304C10.9251 3.81576 11.0841 3.74988 11.25 3.74988C11.4159 3.74988 11.5749 3.81576 11.6922 3.93304L17.3172 9.55804C17.3753 9.61608 17.4214 9.68501 17.4529 9.76089C17.4843 9.83676 17.5005 9.91809 17.5005 10.0002C17.5005 10.0824 17.4843 10.1637 17.4529 10.2396C17.4214 10.3154 17.3753 10.3844 17.3172 10.4424Z" fill="white"/>
</g>
<defs>
<clipPath id="clip0_854_7364">
<rect width="20" height="20" fill="white"/>
</clipPath>
</defs>
</svg>
