<svg width="14" height="14" viewBox="0 0 14 14" fill="none" xmlns="http://www.w3.org/2000/svg">
<path d="M10 0.500122H4C3.07205 0.501115 2.18238 0.870183 1.52622 1.52634C0.87006 2.18251 0.500993 3.07217 0.5 4.00012V10.0001C0.500993 10.9281 0.87006 11.8177 1.52622 12.4739C2.18238 13.1301 3.07205 13.4991 4 13.5001H10C10.928 13.4991 11.8176 13.1301 12.4738 12.4739C13.1299 11.8177 13.499 10.9281 13.5 10.0001V4.00012C13.499 3.07217 13.1299 2.18251 12.4738 1.52634C11.8176 0.870183 10.928 0.501115 10 0.500122ZM7 10.0001C6.40666 10.0001 5.82664 9.82417 5.33329 9.49453C4.83994 9.16489 4.45542 8.69635 4.22836 8.14817C4.0013 7.59999 3.94189 6.99679 4.05764 6.41485C4.1734 5.83291 4.45912 5.29836 4.87868 4.8788C5.29824 4.45924 5.83279 4.17352 6.41473 4.05777C6.99667 3.94201 7.59987 4.00142 8.14805 4.22848C8.69623 4.45555 9.16476 4.84006 9.49441 5.33341C9.82405 5.82676 10 6.40678 10 7.00012C9.99917 7.79552 9.68284 8.5581 9.12041 9.12053C8.55798 9.68296 7.7954 9.9993 7 10.0001ZM10.75 4.00012C10.6017 4.00012 10.4567 3.95614 10.3333 3.87372C10.21 3.79131 10.1139 3.67418 10.0571 3.53713C10.0003 3.40009 9.98547 3.24929 10.0144 3.1038C10.0434 2.95832 10.1148 2.82468 10.2197 2.71979C10.3246 2.6149 10.4582 2.54347 10.6037 2.51453C10.7492 2.48559 10.9 2.50045 11.037 2.55721C11.1741 2.61398 11.2912 2.71011 11.3736 2.83344C11.456 2.95678 11.5 3.10179 11.5 3.25012C11.5 3.44903 11.421 3.6398 11.2803 3.78045C11.1397 3.9211 10.9489 4.00012 10.75 4.00012ZM9 7.00012C9 7.39568 8.8827 7.78236 8.66294 8.11126C8.44318 8.44016 8.13082 8.69651 7.76537 8.84788C7.39991 8.99926 6.99778 9.03886 6.60982 8.96169C6.22186 8.88452 5.86549 8.69404 5.58579 8.41434C5.30608 8.13463 5.1156 7.77826 5.03843 7.3903C4.96126 7.00234 5.00087 6.60021 5.15224 6.23476C5.30362 5.8693 5.55996 5.55695 5.88886 5.33718C6.21776 5.11742 6.60444 5.00012 7 5.00012C7.53043 5.00012 8.03914 5.21084 8.41421 5.58591C8.78929 5.96098 9 6.46969 9 7.00012Z" fill="white"/>
</svg>
