<svg width="102" height="30" viewBox="0 0 102 30" fill="none" xmlns="http://www.w3.org/2000/svg">
<g id="Logo">
<path id="Vector" d="M26.486 5.6826H23.5625V23.6528H26.486V5.6826Z" fill="#003C46"/>
<path id="Vector_2" d="M55.9289 14.6712H51.5329V5.6826H48.6094V23.6528H51.5329V17.5529H55.9289V23.6528H58.8524V5.6826H55.9289V14.6712Z" fill="#003C46"/>
<path id="Vector_3" d="M100.353 5.6826H97.4297V23.6528H100.353V5.6826Z" fill="#003C46"/>
<path id="Vector_4" d="M93.2437 5.6826V23.6528H90.3201L85.9313 12.8623V23.6528H83.0078V5.6826H85.9313L90.3201 16.4661V5.6826H93.2437Z" fill="#003C46"/>
<path id="Vector_5" d="M77.0753 14.6712C77.0753 18.0297 74.3083 20.7501 70.9082 20.7501C69.7345 20.7501 68.6391 20.4276 67.7072 19.8667L76.1861 11.5091L78.3059 9.41969C77.7368 8.63441 77.0397 7.94729 76.2431 7.37936C74.7422 6.31363 72.8999 5.6826 70.9082 5.6826C65.872 5.6826 61.7891 9.70715 61.7891 14.6712C61.7891 16.6344 62.4292 18.4504 63.5104 19.9228C64.0866 20.708 64.7837 21.3952 65.5804 21.9631C67.0813 23.0288 68.9165 23.6599 70.9082 23.6599C75.9443 23.6599 80.0202 19.6353 80.0273 14.6782H77.0824L77.0753 14.6712ZM64.7339 14.6712C64.7339 11.3128 67.4938 8.58533 70.9011 8.58533C72.0747 8.58533 73.1773 8.90785 74.1091 9.46876L65.6302 17.8264C65.0611 16.9079 64.7339 15.8281 64.7339 14.6712Z" fill="#003C46"/>
<path id="Vector_6" d="M38.9003 20.7432C35.4931 20.7432 32.7332 18.0228 32.7332 14.6643C32.7332 11.3058 35.4931 8.58542 38.9003 8.58542C40.6075 8.58542 42.1511 9.26552 43.2607 10.3663L45.3449 8.31197C43.6946 6.68533 41.4184 5.67568 38.9003 5.67568C33.8642 5.67568 29.7812 9.70023 29.7812 14.6643C29.7812 19.6284 33.8642 23.6529 38.9003 23.6529C41.4184 23.6529 43.6946 22.6503 45.3449 21.0236L43.2607 18.9693C42.144 20.0701 40.6004 20.7502 38.9003 20.7502V20.7432Z" fill="#003C46"/>
<path id="Vector_7" d="M17.2121 8.31197C15.5618 6.68533 13.2856 5.67568 10.7675 5.67568C5.73141 5.67568 1.64844 9.70023 1.64844 14.6643C1.64844 17.1463 2.66563 19.39 4.323 21.0166L6.40716 18.9623C5.29039 17.8615 4.60041 16.34 4.60041 14.6643C4.60041 11.3058 7.36033 8.58542 10.7675 8.58542C12.4747 8.58542 14.0183 9.26552 15.1279 10.3663C16.2447 11.4671 16.9347 12.9886 16.9347 14.6643C16.9347 17.525 14.9288 19.9229 12.2257 20.5679V13.22L9.30223 16.1016V29.7248H12.2257V23.5267C16.5648 22.8396 19.8795 19.1236 19.8795 14.6573C19.8795 12.1753 18.8624 9.9316 17.2121 8.30495V8.31197Z" fill="#003C46"/>
</g>
</svg>
