<svg width="14" height="13" viewBox="0 0 14 13" fill="none" xmlns="http://www.w3.org/2000/svg">
<path d="M13.8054 0.637004C13.7279 0.570109 13.6337 0.52562 13.5328 0.508329C13.4319 0.491038 13.3282 0.501601 13.2329 0.538879L0.566652 5.49575C0.387142 5.56556 0.235167 5.69179 0.133605 5.85544C0.0320428 6.01908 -0.0136084 6.2113 0.00352396 6.40314C0.0206563 6.59498 0.0996449 6.77606 0.228598 6.91913C0.357551 7.06219 0.529489 7.15949 0.718527 7.19638L4.0004 7.84075V11.5001C3.99976 11.6995 4.05899 11.8944 4.17043 12.0596C4.28187 12.2249 4.44037 12.3529 4.6254 12.427C4.81015 12.5024 5.01332 12.5206 5.20849 12.479C5.40367 12.4374 5.58182 12.3381 5.71978 12.1939L7.30228 10.5526L9.8129 12.7501C9.99404 12.9108 10.2277 12.9997 10.4698 13.0001C10.5759 13 10.6813 12.9834 10.7823 12.9508C10.9472 12.8984 11.0956 12.8038 11.2126 12.6762C11.3296 12.5487 11.4112 12.3927 11.4492 12.2239L13.986 1.18763C14.0087 1.0881 14.0039 0.984267 13.9721 0.887267C13.9403 0.790267 13.8826 0.703755 13.8054 0.637004ZM10.471 12.0001L5.30353 7.46888L12.741 2.13825L10.471 12.0001Z" fill="white"/>
</svg>
