<svg width="16" height="16" viewBox="0 0 16 16" fill="none" xmlns="http://www.w3.org/2000/svg">
<g id="wrapper">
<path id="Union" d="M13.5326 6.53073L8.53255 11.5307C8.46287 11.6007 8.38008 11.6561 8.28892 11.694C8.19775 11.7318 8.10001 11.7513 8.0013 11.7513C7.90259 11.7513 7.80485 11.7318 7.71369 11.694C7.62252 11.6561 7.53973 11.6007 7.47005 11.5307L2.47005 6.53073C2.32915 6.38984 2.25 6.19874 2.25 5.99948C2.25 5.80023 2.32915 5.60913 2.47005 5.46823C2.61095 5.32734 2.80204 5.24818 3.0013 5.24818C3.20056 5.24818 3.39165 5.32734 3.53255 5.46823L8.00193 9.93761L12.4713 5.46761C12.6122 5.32671 12.8033 5.24756 13.0026 5.24756C13.2018 5.24756 13.3929 5.32671 13.5338 5.46761C13.6747 5.60851 13.7539 5.7996 13.7539 5.99886C13.7539 6.19812 13.6747 6.38921 13.5338 6.53011L13.5326 6.53073Z" fill="white" fill-opacity="0.6"/>
</g>
</svg>
