<svg width="32" height="32" viewBox="0 0 32 32" fill="none" xmlns="http://www.w3.org/2000/svg">
<path d="M0 12.8C0 8.31958 0 6.07937 0.871948 4.36808C1.63893 2.86278 2.86278 1.63893 4.36808 0.871948C6.07937 0 8.31958 0 12.8 0H19.2C23.6804 0 25.9206 0 27.6319 0.871948C29.1372 1.63893 30.3611 2.86278 31.1281 4.36808C32 6.07937 32 8.31958 32 12.8V19.2C32 23.6804 32 25.9206 31.1281 27.6319C30.3611 29.1372 29.1372 30.3611 27.6319 31.1281C25.9206 32 23.6804 32 19.2 32H12.8C8.31958 32 6.07937 32 4.36808 31.1281C2.86278 30.3611 1.63893 29.1372 0.871948 27.6319C0 25.9206 0 23.6804 0 19.2V12.8Z" fill="white" fill-opacity="0.12"/>
<g clip-path="url(#clip0_1327_3395)">
<path d="M19 9.5H13C12.072 9.50099 11.1824 9.87006 10.5262 10.5262C9.87006 11.1824 9.50099 12.072 9.5 13V19C9.50099 19.928 9.87006 20.8176 10.5262 21.4738C11.1824 22.1299 12.072 22.499 13 22.5H19C19.928 22.499 20.8176 22.1299 21.4738 21.4738C22.1299 20.8176 22.499 19.928 22.5 19V13C22.499 12.072 22.1299 11.1824 21.4738 10.5262C20.8176 9.87006 19.928 9.50099 19 9.5ZM16 19C15.4067 19 14.8266 18.8241 14.3333 18.4944C13.8399 18.1648 13.4554 17.6962 13.2284 17.1481C13.0013 16.5999 12.9419 15.9967 13.0576 15.4147C13.1734 14.8328 13.4591 14.2982 13.8787 13.8787C14.2982 13.4591 14.8328 13.1734 15.4147 13.0576C15.9967 12.9419 16.5999 13.0013 17.1481 13.2284C17.6962 13.4554 18.1648 13.8399 18.4944 14.3333C18.8241 14.8266 19 15.4067 19 16C18.9992 16.7954 18.6828 17.558 18.1204 18.1204C17.558 18.6828 16.7954 18.9992 16 19ZM19.75 13C19.6017 13 19.4567 12.956 19.3333 12.8736C19.21 12.7912 19.1139 12.6741 19.0571 12.537C19.0003 12.4 18.9855 12.2492 19.0144 12.1037C19.0434 11.9582 19.1148 11.8246 19.2197 11.7197C19.3246 11.6148 19.4582 11.5433 19.6037 11.5144C19.7492 11.4855 19.9 11.5003 20.037 11.5571C20.1741 11.6139 20.2912 11.71 20.3736 11.8333C20.456 11.9567 20.5 12.1017 20.5 12.25C20.5 12.4489 20.421 12.6397 20.2803 12.7803C20.1397 12.921 19.9489 13 19.75 13ZM18 16C18 16.3956 17.8827 16.7822 17.6629 17.1111C17.4432 17.44 17.1308 17.6964 16.7654 17.8478C16.3999 17.9991 15.9978 18.0387 15.6098 17.9616C15.2219 17.8844 14.8655 17.6939 14.5858 17.4142C14.3061 17.1345 14.1156 16.7781 14.0384 16.3902C13.9613 16.0022 14.0009 15.6001 14.1522 15.2346C14.3036 14.8692 14.56 14.5568 14.8889 14.3371C15.2178 14.1173 15.6044 14 16 14C16.5304 14 17.0391 14.2107 17.4142 14.5858C17.7893 14.9609 18 15.4696 18 16Z" fill="white"/>
</g>
<defs>
<clipPath id="clip0_1327_3395">
<rect width="16" height="16" fill="white" transform="translate(8 8)"/>
</clipPath>
</defs>
</svg>
