<svg width="32" height="32" viewBox="0 0 32 32" fill="none" xmlns="http://www.w3.org/2000/svg">
<path d="M0 12.8C0 8.31958 0 6.07937 0.871948 4.36808C1.63893 2.86278 2.86278 1.63893 4.36808 0.871948C6.07937 0 8.31958 0 12.8 0H19.2C23.6804 0 25.9206 0 27.6319 0.871948C29.1372 1.63893 30.3611 2.86278 31.1281 4.36808C32 6.07937 32 8.31958 32 12.8V19.2C32 23.6804 32 25.9206 31.1281 27.6319C30.3611 29.1372 29.1372 30.3611 27.6319 31.1281C25.9206 32 23.6804 32 19.2 32H12.8C8.31958 32 6.07937 32 4.36808 31.1281C2.86278 30.3611 1.63893 29.1372 0.871948 27.6319C0 25.9206 0 23.6804 0 19.2V12.8Z" fill="white" fill-opacity="0.12"/>
<g clip-path="url(#clip0_1327_3401)">
<path d="M22.8054 9.637C22.7279 9.57011 22.6337 9.52562 22.5328 9.50833C22.4319 9.49104 22.3282 9.5016 22.2329 9.53888L9.56665 14.4958C9.38714 14.5656 9.23517 14.6918 9.1336 14.8554C9.03204 15.0191 8.98639 15.2113 9.00352 15.4031C9.02066 15.595 9.09964 15.7761 9.2286 15.9191C9.35755 16.0622 9.52949 16.1595 9.71853 16.1964L13.0004 16.8408V20.5001C12.9998 20.6995 13.059 20.8944 13.1704 21.0596C13.2819 21.2249 13.4404 21.3529 13.6254 21.427C13.8101 21.5024 14.0133 21.5206 14.2085 21.479C14.4037 21.4374 14.5818 21.3381 14.7198 21.1939L16.3023 19.5526L18.8129 21.7501C18.994 21.9108 19.2277 21.9997 19.4698 22.0001C19.5759 22 19.6813 21.9834 19.7823 21.9508C19.9472 21.8984 20.0956 21.8038 20.2126 21.6762C20.3296 21.5487 20.4112 21.3927 20.4492 21.2239L22.986 10.1876C23.0087 10.0881 23.0039 9.98427 22.9721 9.88727C22.9403 9.79027 22.8826 9.70376 22.8054 9.637ZM19.471 21.0001L14.3035 16.4689L21.741 11.1383L19.471 21.0001Z" fill="white"/>
</g>
<defs>
<clipPath id="clip0_1327_3401">
<rect width="16" height="16" fill="white" transform="translate(8 8)"/>
</clipPath>
</defs>
</svg>
