<svg width="32" height="34" viewBox="0 0 32 34" fill="none" xmlns="http://www.w3.org/2000/svg">
<g clip-path="url(#clip0_518_5843)">
<path d="M19.6325 4.44007L19.4462 4.34602L17.4756 3.35086C17.4756 3.35085 17.4756 3.35083 17.4756 3.35082C16.5493 2.8832 15.453 2.88285 14.524 3.35104C14.5239 3.35108 14.5238 3.35112 14.5238 3.35116L12.5538 4.34602L12.3675 4.44007L12.1592 4.4518L9.95445 4.57593C9.95432 4.57593 9.95418 4.57594 9.95405 4.57595C9.95403 4.57595 9.95401 4.57595 9.95398 4.57595C8.91672 4.63498 7.967 5.18334 7.39811 6.0525L7.39782 6.05296L6.18781 7.89949L6.07367 8.07368L5.89949 8.18782L4.05296 9.39782L4.0525 9.39811C3.18305 9.96718 2.63496 10.9151 2.57595 11.954C2.57595 11.954 2.57595 11.9541 2.57594 11.9541C2.57594 11.9542 2.57594 11.9543 2.57593 11.9544L2.4518 14.1592L2.44007 14.3675L2.34601 14.5537L1.35086 16.5244C1.35085 16.5244 1.35083 16.5244 1.35082 16.5244C0.883163 17.4508 0.882846 18.5472 1.35115 19.4762L2.34601 21.4463L2.44007 21.6325L2.4518 21.8408L2.57593 24.0456C2.57593 24.0457 2.57594 24.0459 2.57595 24.046C2.63498 25.0833 3.18334 26.033 4.0525 26.6019L4.05295 26.6022L5.89949 27.8122L6.07367 27.9263L6.18781 28.1005L7.39782 29.947L7.39811 29.9475C7.96725 30.817 8.91532 31.3652 9.95437 31.4241L12.1592 31.5482L12.3675 31.5599L12.5538 31.654L14.5244 32.6491C15.4507 33.1168 16.5471 33.1172 17.4762 32.6488L19.4462 31.654L19.6325 31.5599L19.8408 31.5482L22.0456 31.4241C22.0457 31.4241 22.0459 31.4241 22.046 31.424C23.0833 31.365 24.033 30.8167 24.6019 29.9475L24.6022 29.947L25.8122 28.1005L25.9263 27.9263L26.1005 27.8122L27.947 26.6022L27.9475 26.6019C28.8171 26.0328 29.3652 25.0847 29.4241 24.0456L29.5482 21.8408L29.5599 21.6325L29.654 21.4463L30.6491 19.4756C31.1167 18.5495 31.1172 17.4534 30.6492 16.5244L19.6325 4.44007ZM19.6325 4.44007L19.8408 4.4518L22.0456 4.57593C22.0458 4.57594 22.0459 4.57594 22.046 4.57595C23.0849 4.63496 24.0328 5.18305 24.6019 6.05251L24.6022 6.05295L25.8122 7.89949L25.9263 8.07368L26.1005 8.18782L27.947 9.39782L27.9475 9.39811C28.8167 9.967 29.365 10.9167 29.424 11.954C29.4241 11.9541 29.4241 11.9543 29.4241 11.9544L29.5482 14.1592L29.5599 14.3675L29.654 14.5537L30.6488 16.5238L19.6325 4.44007Z" fill="#94964D" stroke="#606232" stroke-width="2"/>
<path d="M17.2344 12.8C17.9811 12.8 18.6211 12.944 19.1544 13.232C19.6984 13.5093 20.1091 13.8987 20.3864 14.4C20.6744 14.8907 20.8184 15.4507 20.8184 16.08C20.8184 16.7093 20.6744 17.2747 20.3864 17.776C20.1091 18.2667 19.6984 18.656 19.1544 18.944C18.6211 19.2213 17.9811 19.36 17.2344 19.36H13.9384V24H12.3384V12.8H17.2344ZM17.1864 17.872C17.8264 17.872 18.3118 17.7227 18.6424 17.424C18.9731 17.1147 19.1384 16.6667 19.1384 16.08C19.1384 15.4933 18.9731 15.0507 18.6424 14.752C18.3118 14.4533 17.8264 14.304 17.1864 14.304H13.9384V17.872H17.1864Z" fill="white"/>
</g>
<defs>
<clipPath id="clip0_518_5843">
<rect y="2" width="32" height="32" rx="16" fill="white"/>
</clipPath>
</defs>
</svg>
