<svg width="44" height="44" viewBox="0 0 44 44" fill="none" xmlns="http://www.w3.org/2000/svg">
<path d="M0.5 12.8C0.5 10.5515 0.500389 8.89526 0.607333 7.58633C0.7138 6.28324 0.923377 5.36848 1.31745 4.59507C2.0365 3.18386 3.18386 2.0365 4.59507 1.31745C5.36848 0.923378 6.28324 0.7138 7.58633 0.607333C8.89526 0.500389 10.5515 0.5 12.8 0.5H31.2C33.4485 0.5 35.1047 0.500389 36.4137 0.607333C37.7168 0.7138 38.6315 0.923378 39.4049 1.31745C40.8161 2.0365 41.9635 3.18386 42.6825 4.59507C43.0766 5.36848 43.2862 6.28324 43.3927 7.58633C43.4996 8.89526 43.5 10.5515 43.5 12.8V31.2C43.5 33.4485 43.4996 35.1047 43.3927 36.4137C43.2862 37.7168 43.0766 38.6315 42.6825 39.4049C41.9635 40.8161 40.8161 41.9635 39.4049 42.6825C38.6315 43.0766 37.7168 43.2862 36.4137 43.3927C35.1047 43.4996 33.4485 43.5 31.2 43.5H12.8C10.5515 43.5 8.89526 43.4996 7.58633 43.3927C6.28324 43.2862 5.36848 43.0766 4.59507 42.6825C3.18386 41.9635 2.0365 40.8161 1.31745 39.4049C0.923378 38.6315 0.7138 37.7168 0.607333 36.4137C0.500389 35.1047 0.5 33.4485 0.5 31.2V12.8Z" stroke="white" stroke-opacity="0.12"/>
<g clip-path="url(#clip0_518_5820)">
<path d="M28.875 15.75H25.75V15.125C25.75 14.6277 25.5525 14.1508 25.2008 13.7992C24.8492 13.4475 24.3723 13.25 23.875 13.25H20.125C19.6277 13.25 19.1508 13.4475 18.7992 13.7992C18.4475 14.1508 18.25 14.6277 18.25 15.125V15.75H15.125C14.9592 15.75 14.8003 15.8158 14.6831 15.9331C14.5658 16.0503 14.5 16.2092 14.5 16.375C14.5 16.5408 14.5658 16.6997 14.6831 16.8169C14.8003 16.9342 14.9592 17 15.125 17H15.75V28.25C15.75 28.5815 15.8817 28.8995 16.1161 29.1339C16.3505 29.3683 16.6685 29.5 17 29.5H27C27.3315 29.5 27.6495 29.3683 27.8839 29.1339C28.1183 28.8995 28.25 28.5815 28.25 28.25V17H28.875C29.0408 17 29.1997 16.9342 29.3169 16.8169C29.4342 16.6997 29.5 16.5408 29.5 16.375C29.5 16.2092 29.4342 16.0503 29.3169 15.9331C29.1997 15.8158 29.0408 15.75 28.875 15.75ZM19.5 15.125C19.5 14.9592 19.5658 14.8003 19.6831 14.6831C19.8003 14.5658 19.9592 14.5 20.125 14.5H23.875C24.0408 14.5 24.1997 14.5658 24.3169 14.6831C24.4342 14.8003 24.5 14.9592 24.5 15.125V15.75H19.5V15.125ZM27 28.25H17V17H27V28.25ZM20.75 20.125V25.125C20.75 25.2908 20.6842 25.4497 20.5669 25.5669C20.4497 25.6842 20.2908 25.75 20.125 25.75C19.9592 25.75 19.8003 25.6842 19.6831 25.5669C19.5658 25.4497 19.5 25.2908 19.5 25.125V20.125C19.5 19.9592 19.5658 19.8003 19.6831 19.6831C19.8003 19.5658 19.9592 19.5 20.125 19.5C20.2908 19.5 20.4497 19.5658 20.5669 19.6831C20.6842 19.8003 20.75 19.9592 20.75 20.125ZM24.5 20.125V25.125C24.5 25.2908 24.4342 25.4497 24.3169 25.5669C24.1997 25.6842 24.0408 25.75 23.875 25.75C23.7092 25.75 23.5503 25.6842 23.4331 25.5669C23.3158 25.4497 23.25 25.2908 23.25 25.125V20.125C23.25 19.9592 23.3158 19.8003 23.4331 19.6831C23.5503 19.5658 23.7092 19.5 23.875 19.5C24.0408 19.5 24.1997 19.5658 24.3169 19.6831C24.4342 19.8003 24.5 19.9592 24.5 20.125Z" fill="white"/>
</g>
<defs>
<clipPath id="clip0_518_5820">
<rect width="20" height="20" fill="white" transform="translate(12 12)"/>
</clipPath>
</defs>
</svg>
