<svg width="44" height="44" viewBox="0 0 44 44" fill="none" xmlns="http://www.w3.org/2000/svg">
<path d="M0.5 12.8C0.5 10.5515 0.500389 8.89526 0.607333 7.58633C0.7138 6.28324 0.923377 5.36848 1.31745 4.59507C2.0365 3.18386 3.18386 2.0365 4.59507 1.31745C5.36848 0.923378 6.28324 0.7138 7.58633 0.607333C8.89526 0.500389 10.5515 0.5 12.8 0.5H31.2C33.4485 0.5 35.1047 0.500389 36.4137 0.607333C37.7168 0.7138 38.6315 0.923378 39.4049 1.31745C40.8161 2.0365 41.9635 3.18386 42.6825 4.59507C43.0766 5.36848 43.2862 6.28324 43.3927 7.58633C43.4996 8.89526 43.5 10.5515 43.5 12.8V31.2C43.5 33.4485 43.4996 35.1047 43.3927 36.4137C43.2862 37.7168 43.0766 38.6315 42.6825 39.4049C41.9635 40.8161 40.8161 41.9635 39.4049 42.6825C38.6315 43.0766 37.7168 43.2862 36.4137 43.3927C35.1047 43.4996 33.4485 43.5 31.2 43.5H12.8C10.5515 43.5 8.89526 43.4996 7.58633 43.3927C6.28324 43.2862 5.36848 43.0766 4.59507 42.6825C3.18386 41.9635 2.0365 40.8161 1.31745 39.4049C0.923378 38.6315 0.7138 37.7168 0.607333 36.4137C0.500389 35.1047 0.5 33.4485 0.5 31.2V12.8Z" stroke="white" stroke-opacity="0.12"/>
<g clip-path="url(#clip0_518_7625)">
<path d="M29.5005 22.0002C29.5005 22.166 29.4346 22.3249 29.3174 22.4421C29.2002 22.5594 29.0413 22.6252 28.8755 22.6252H16.6341L21.1927 27.183C21.2507 27.2411 21.2968 27.31 21.3282 27.3859C21.3597 27.4618 21.3758 27.5431 21.3758 27.6252C21.3758 27.7073 21.3597 27.7886 21.3282 27.8645C21.2968 27.9404 21.2507 28.0093 21.1927 28.0674C21.1346 28.1255 21.0657 28.1715 20.9898 28.2029C20.9139 28.2344 20.8326 28.2506 20.7505 28.2506C20.6684 28.2506 20.5871 28.2344 20.5112 28.2029C20.4353 28.1715 20.3664 28.1255 20.3083 28.0674L14.6833 22.4424C14.6252 22.3843 14.5791 22.3154 14.5476 22.2395C14.5162 22.1637 14.5 22.0823 14.5 22.0002C14.5 21.9181 14.5162 21.8367 14.5476 21.7609C14.5791 21.685 14.6252 21.6161 14.6833 21.558L20.3083 15.933C20.4256 15.8157 20.5846 15.7499 20.7505 15.7499C20.9163 15.7499 21.0754 15.8157 21.1927 15.933C21.31 16.0503 21.3758 16.2094 21.3758 16.3752C21.3758 16.5411 21.31 16.7001 21.1927 16.8174L16.6341 21.3752H28.8755C29.0413 21.3752 29.2002 21.4411 29.3174 21.5583C29.4346 21.6755 29.5005 21.8344 29.5005 22.0002Z" fill="white"/>
</g>
<defs>
<clipPath id="clip0_518_7625">
<rect width="20" height="20" fill="white" transform="translate(12 12)"/>
</clipPath>
</defs>
</svg>
